PathFileType  4	(X/Y/Z) C:\Users\antoi\Documents\MyRepositories\mobilecap\ResultsAnalysis
DataRate	CameraRate	NumFrames	NumMarkers	Units	OrigDataRate	OrigDataStartFrame	OrigNumFrames
100.0	100.0	6	51	mm	100.0	238	271
Frame#	Time	r_knee			r_shank_antsup			r_ankle			r_calc			r_5meta			r_toe			L_knee			L_shank_antsup			L_ankle			L_calc			L_5meta			L_toe			r_sh2			r_sh3			r_sh4			L_sh2			L_sh3			r_thigh1			r_thigh2			r_thigh3			r_thigh4			r_thigh5			L_thigh1			L_thigh2			L_thigh3			L_thigh4			r.ASIS			r.PSIS			L.ASIS			L.PSIS			C7			R_Shoulder			L_Shoulder			R_Sternum			L_Sternum			R_humerus			R_elbow_med			R_elbow_lat			R_forearm			R_wrist_radius			R_wrist_ulna			L_humerus			L_elbow_med			L_elbow_lat			L_forearm			L_wrist_radius			L_wrist_ulna			R_HJC			L_HJC			R_HJC_reg			L_HJC_reg			
		X1	Y1	Z1	X2	Y2	Z2	X3	Y3	Z3	X4	Y4	Z4	X5	Y5	Z5	X6	Y6	Z6	X7	Y7	Z7	X8	Y8	Z8	X9	Y9	Z9	X10	Y10	Z10	X11	Y11	Z11	X12	Y12	Z12	X13	Y13	Z13	X14	Y14	Z14	X15	Y15	Z15	X16	Y16	Z16	X17	Y17	Z17	X18	Y18	Z18	X19	Y19	Z19	X20	Y20	Z20	X21	Y21	Z21	X22	Y22	Z22	X23	Y23	Z23	X24	Y24	Z24	X25	Y25	Z25	X26	Y26	Z26	X27	Y27	Z27	X28	Y28	Z28	X29	Y29	Z29	X30	Y30	Z30	X31	Y31	Z31	X32	Y32	Z32	X33	Y33	Z33	X34	Y34	Z34	X35	Y35	Z35	X36	Y36	Z36	X37	Y37	Z37	X38	Y38	Z38	X39	Y39	Z39	X40	Y40	Z40	X41	Y41	Z41	X42	Y42	Z42	X43	Y43	Z43	X44	Y44	Z44	X45	Y45	Z45	X46	Y46	Z46	X47	Y47	Z47	X48	Y48	Z48	X49	Y49	Z49	X50	Y50	Z50	X51	Y51	Z51	

238	2.37000000	-205.53836	828.74148	-404.92436	-172.77312	772.41685	-396.12938	-202.53784	437.30899	-377.57501	-248.14051	454.66699	-435.90358	-159.53933	319.25874	-361.48362	-102.04976	317.96514	-396.65157	-165.26164	815.67039	-751.64320	-125.89632	738.34273	-751.11949	-160.71151	431.91627	-793.48863	-217.60317	438.84989	-741.10466	-113.68239	311.45908	-801.51798	-54.08815	306.92898	-756.95576	-181.45499	661.39878	-374.47859	-248.38341	781.96543	-382.14740	-262.64396	664.92244	-370.94778	-207.45403	754.36236	-786.74387	-204.41342	632.79457	-808.19047	-149.93422	1078.14877	-369.58555	-152.50270	964.94577	-379.69537	-255.73975	964.25387	-419.45309	-259.12747	1079.29979	-399.67443	-215.05206	944.37180	-387.40227	-123.58091	1095.82511	-777.52315	-115.65684	957.44453	-764.09106	-235.28071	1090.63523	-774.13831	-228.92981	953.80617	-743.21859	-77.30742	1277.46975	-469.18967	-273.32001	1327.56002	-544.62200	-75.73849	1272.45182	-682.54570	-269.48291	1323.70885	-623.45996	-144.72776	1744.14508	-572.74070	-84.36617	1721.75264	-439.91165	-91.31791	1725.43515	-702.63497	-15.17181	1696.66802	-560.93348	-20.76426	1693.85741	-589.05257	-31.54985	1663.48991	-350.67200	-16.58419	1469.17075	-241.78434	13.46764	1526.91489	-204.60539	92.56548	1552.43696	-252.22362	202.71233	1554.87548	-334.79499	223.16320	1537.72358	-306.21254	-61.28120	1691.33171	-803.10164	-22.44029	1513.86337	-943.53548	-5.00745	1584.76177	-963.28460	86.80887	1597.84027	-910.69473	176.55743	1595.39829	-824.65306	196.78308	1572.51274	-850.76425	-165.35990	1199.43220	-470.89791	-161.68847	1196.02554	-678.34471	-155.96240	1221.45253	-499.20634	-149.12229	1214.58680	-639.73047	
239	2.38000000	-203.72374	828.25071	-404.48779	-170.55218	771.76798	-396.07370	-198.55801	436.59932	-377.96746	-244.71363	453.39385	-436.12458	-154.40000	318.66708	-362.68436	-97.21547	317.89369	-398.30643	-163.69300	815.08526	-751.07417	-123.98664	737.90517	-750.42261	-158.55343	431.57266	-793.36326	-215.46002	438.29853	-740.92342	-111.21591	311.32133	-801.58018	-51.56720	306.84734	-756.85428	-178.39926	660.69767	-374.75873	-246.95282	780.66953	-381.77515	-259.64835	663.88962	-370.94397	-205.38913	753.81185	-786.47325	-202.07298	632.42573	-808.16167	-148.84526	1077.62144	-368.96897	-151.33160	964.52906	-379.17595	-254.45233	963.77373	-419.28748	-257.55627	1078.94303	-400.39172	-213.79797	943.84869	-387.15865	-121.57730	1095.27255	-776.23827	-113.99345	956.80873	-763.05078	-233.29179	1089.77588	-774.91409	-227.40839	953.25028	-742.81658	-76.80970	1277.17224	-468.24055	-273.02592	1327.64917	-543.53079	-75.38508	1273.36892	-681.08672	-269.75206	1324.34123	-621.94725	-144.69804	1744.21115	-571.64644	-82.21532	1720.57477	-438.81235	-91.36498	1724.96811	-702.73439	-14.67437	1696.21002	-555.28376	-20.94231	1693.25010	-588.90882	-31.03774	1660.23919	-350.00804	-22.49442	1464.80779	-242.71994	9.14770	1520.87455	-204.81781	90.24353	1543.82167	-250.54397	201.98559	1542.75984	-331.05739	221.27295	1524.76537	-302.20118	-63.24827	1688.26631	-803.36699	-31.51599	1507.15343	-941.36938	-11.49522	1577.06301	-962.33988	81.84534	1586.74726	-911.42639	173.21048	1581.17902	-827.18905	191.90315	1557.30508	-853.80583	-165.08630	1199.18149	-470.19409	-161.42769	1196.90152	-677.65671	-155.05839	1221.43351	-498.00011	-149.20222	1215.51629	-638.25571	
240	2.39000000	-201.82099	826.56147	-404.23701	-168.50738	769.95490	-395.79799	-194.62825	434.39524	-378.92145	-241.22074	451.01517	-436.61624	-149.47580	316.92915	-363.99237	-92.44210	316.71138	-399.83500	-162.91191	813.61085	-750.39258	-122.82509	736.58050	-750.00337	-156.57903	430.30293	-793.13141	-213.38493	436.57934	-740.57969	-108.66149	310.36977	-801.94182	-48.75656	306.13906	-757.43455	-175.62869	658.73885	-375.02937	-244.17932	778.76214	-381.90936	-256.91326	661.52976	-371.10392	-204.23283	752.30148	-785.97213	-200.44318	630.96712	-807.93103	-147.28773	1076.14623	-368.13915	-149.87087	962.97903	-378.64979	-252.94174	962.45503	-418.78194	-255.52267	1077.94050	-400.86204	-212.29114	942.34157	-386.87787	-120.00641	1093.59373	-775.22957	-113.00714	955.21565	-762.18582	-231.66064	1088.24299	-774.17492	-226.34980	951.79745	-741.79553	-76.32047	1276.04507	-467.36524	-272.42390	1326.92009	-542.31843	-75.01857	1272.90136	-679.71252	-269.76147	1324.22067	-620.29853	-144.70640	1743.08296	-570.66141	-80.63044	1718.48299	-437.85380	-91.52461	1723.57791	-702.85914	-13.87969	1694.97264	-550.81761	-21.14946	1691.52196	-588.57261	-30.89981	1656.13570	-349.69204	-27.86288	1459.96091	-243.33930	5.09771	1514.44080	-205.22438	87.77078	1534.76677	-249.14623	200.95334	1530.34379	-327.92984	219.17378	1511.87141	-298.75112	-64.95888	1684.38003	-803.42421	-40.55504	1499.75815	-939.06263	-17.82678	1568.53431	-961.08943	76.68764	1574.85360	-911.82242	169.32103	1566.25133	-829.18357	186.62046	1541.54198	-856.10368	-164.77213	1198.17823	-469.28032	-161.31465	1196.61911	-676.75325	-154.06557	1220.23018	-496.86421	-149.28648	1215.38667	-636.86533	
241	2.40000000	-199.77270	823.75659	-404.25257	-166.30376	767.00985	-395.57129	-190.70861	430.72213	-380.52002	-237.68762	447.62978	-437.40904	-144.80654	314.13392	-365.16270	-87.81516	314.54234	-401.19796	-162.61615	811.37440	-749.90440	-122.19426	734.44653	-749.73863	-154.76283	428.10905	-792.92390	-211.39441	433.81441	-740.17139	-106.05063	308.63339	-802.43614	-45.86463	304.71226	-758.37981	-172.98945	655.74634	-375.17306	-241.02400	775.98134	-381.94625	-254.32870	657.96219	-371.42764	-203.78529	749.97561	-785.40438	-199.56370	628.49060	-807.34280	-145.35862	1073.47603	-367.32884	-148.13361	960.30952	-378.05114	-251.21099	960.02947	-418.05345	-253.30031	1075.88474	-401.02933	-210.59537	939.82879	-386.35628	-118.95818	1090.95562	-774.62410	-112.49569	952.66065	-761.41803	-230.56379	1086.01852	-772.16179	-225.66877	949.52793	-740.55206	-75.96922	1274.03245	-466.61284	-271.73399	1325.29463	-540.99357	-74.58991	1270.93544	-678.55144	-269.38642	1323.26457	-618.65297	-144.67977	1740.71985	-569.94385	-79.82908	1715.51879	-437.21665	-91.67329	1721.19065	-703.01370	-13.83356	1692.30396	-550.33588	-21.15623	1688.86191	-588.58516	-31.12518	1651.27265	-349.70851	-32.69035	1454.45494	-244.36704	1.32236	1507.64416	-205.75654	85.30134	1525.43115	-248.21637	199.66488	1517.69754	-325.39312	216.92895	1499.03285	-295.79137	-66.40868	1679.56198	-803.36483	-49.42081	1491.72369	-936.43947	-24.08366	1559.10729	-959.53729	71.34014	1562.19871	-911.89619	164.91341	1550.70955	-830.76417	180.91623	1525.26449	-857.68122	-164.51150	1196.34325	-468.22765	-161.34877	1195.09108	-675.70737	-153.33090	1217.69012	-496.19925	-149.10539	1214.03511	-635.98520	
242	2.41000000	-197.54864	819.86778	-404.45361	-163.90757	763.01479	-395.54699	-187.07098	426.28555	-381.83608	-234.19182	443.16552	-438.38470	-140.27511	310.40941	-366.05030	-83.32310	311.34449	-402.15245	-162.49347	808.31412	-749.58107	-121.78803	731.51507	-749.63565	-153.12174	424.91997	-792.75583	-209.55010	430.09744	-739.74446	-103.53279	306.03586	-802.95419	-43.14987	302.36147	-759.22146	-170.37197	651.84468	-375.21156	-238.70206	772.00616	-381.68245	-251.82408	653.47267	-372.00708	-203.68538	746.68801	-784.75164	-199.15090	625.10143	-806.55989	-143.47828	1069.71038	-366.67576	-146.15946	956.66661	-377.45837	-249.38481	956.28466	-417.30137	-251.19617	1072.42990	-400.94982	-208.69087	936.17434	-385.62771	-118.39267	1087.50957	-774.22530	-112.32876	949.16898	-760.75139	-229.96400	1083.07901	-769.36546	-225.36293	946.48853	-739.32315	-75.74786	1270.94227	-466.08616	-271.09077	1322.79616	-539.59117	-74.00664	1267.61899	-677.80533	-268.72982	1321.41208	-617.18417	-144.71170	1737.13518	-569.41309	-79.83628	1711.59496	-436.95181	-91.76758	1717.59628	-703.00267	-14.35351	1688.05946	-553.72049	-20.98197	1685.06429	-588.55503	-31.63408	1645.67699	-349.83959	-37.04358	1448.23311	-245.88422	-2.16030	1500.36116	-206.42242	82.90230	1515.90563	-247.88400	198.22337	1504.80391	-323.32393	214.55440	1486.07729	-293.32986	-67.70269	1673.74938	-803.25941	-58.09485	1483.01480	-933.31948	-30.31193	1548.84893	-957.84836	65.82766	1548.79938	-911.67201	160.13373	1534.72115	-831.82433	174.78723	1508.49879	-858.65482	-164.33678	1193.51161	-467.29972	-161.51919	1192.43606	-674.78505	-152.94877	1213.94555	-496.10684	-148.69743	1211.45169	-635.77709	
243	2.42000000	-195.13372	814.81473	-404.61381	-161.41043	758.00372	-395.66742	-183.72992	421.31382	-382.35526	-230.74351	437.50172	-439.35459	-135.71574	305.80031	-366.66450	-78.78994	307.20162	-402.75520	-162.29053	804.33801	-749.19653	-121.33238	727.63829	-749.64697	-151.65590	420.66729	-792.51807	-207.98300	425.47462	-739.43521	-101.25994	302.29822	-803.13719	-40.78987	298.93690	-759.56057	-167.65710	646.81741	-375.38999	-236.88403	766.74348	-381.38632	-249.22563	648.05192	-372.63579	-203.54376	742.32736	-783.95485	-198.73380	620.85561	-805.95809	-141.90632	1065.06467	-366.06258	-143.98449	951.98932	-377.17818	-247.50576	951.19959	-416.56019	-249.44334	1067.53063	-400.55457	-206.52101	931.24037	-385.00017	-118.21108	1083.29842	-773.84784	-112.41299	944.86941	-760.33594	-229.66914	1079.40144	-766.36712	-225.32420	942.60126	-738.02091	-75.51996	1266.73083	-465.69017	-270.45505	1319.44765	-538.22872	-73.28278	1263.21186	-677.36041	-267.82228	1318.58507	-615.87646	-144.85482	1732.48997	-568.96169	-80.44982	1706.76254	-436.76210	-91.90600	1712.71883	-702.67658	-14.87629	1682.78465	-557.72227	-20.77253	1680.21154	-588.38634	-32.27265	1639.42075	-349.89832	-40.94594	1441.33623	-247.29883	-5.32147	1492.45244	-207.25558	80.50419	1506.05644	-248.07417	196.74523	1491.66131	-321.55912	212.21299	1472.89496	-291.21366	-68.83976	1666.94535	-803.06169	-66.62912	1473.56357	-929.79437	-36.57868	1537.77781	-955.89967	60.17337	1534.73692	-911.09257	155.09930	1518.30965	-832.32448	168.36892	1491.23226	-859.06577	-164.17261	1189.63972	-466.55258	-161.68652	1188.78829	-674.04319	-152.84128	1209.28174	-496.35364	-148.10488	1207.73236	-635.99427	
